Coordinates
version=1
nRows=6
nColumns=36
inDegrees=yes

Units are S.I. units (second, meters, Newtons, ...)
If the header above contains a line with 'inDegrees', this indicates whether rotational values are in degrees (yes) or radians (no).

endheader
time	pelvis_tilt	pelvis_list	pelvis_rotation	pelvis_tx	pelvis_ty	pelvis_tz	hip_flexion_r	hip_adduction_r	hip_rotation_r	knee_angle_r	knee_angle_r_beta	ankle_angle_r	subtalar_angle_r	mtp_angle_r	hip_flexion_l	hip_adduction_l	hip_rotation_l	knee_angle_l	knee_angle_l_beta	ankle_angle_l	subtalar_angle_l	mtp_angle_l	lumbar_extension	lumbar_bending	lumbar_rotation	arm_flex_r	arm_add_r	arm_rot_r	elbow_flex_r	pro_sup_r	arm_flex_l	arm_add_l	arm_rot_l	elbow_flex_l	pro_sup_l
      1.70000000	     -4.84061330	     -2.29042285	     -4.70089398	     -0.28896223	      1.23144768	     -0.10951461	      1.27924138	      1.48244186	      6.37708529	      0.74231557	      0.01295585	      9.83611982	     -7.48618269	     -7.49999987	     -0.88515218	     -3.58309010	     -3.06517333	      0.31154250	      0.00543744	     12.08737303	      4.87755413	     -7.49999987	     -1.67514819	      3.78877268	      2.16880883	    -10.61351398	     -9.45388565	      1.09143126	     92.54206629	     74.11116203	     -7.38221484	    -15.23823180	     17.56568679	     75.02974142	     67.16063952
      1.71666670	     -5.05414002	     -2.28184170	     -4.76548752	     -0.28908538	      1.22855812	     -0.10935587	      1.50538152	      1.54105338	      6.62119005	      0.70351451	      0.01227864	      9.52873310	     -7.82749837	     -7.49999987	     -0.63104778	     -3.60151230	     -3.26859832	      0.30929397	      0.00539820	     11.94069051	      5.00847043	     -7.49999987	     -1.41461401	      3.95514530	      1.93903082	     -8.76094311	     -9.84527177	      0.88735506	    101.69118153	     80.35627496	     -8.59171237	    -16.15494788	     14.17633359	     87.28458026	     75.73165545
      1.73333330	     -5.19755948	     -2.29563450	     -4.81759189	     -0.28896289	      1.23058784	     -0.10960809	      1.66379594	      1.59476236	      6.52477430	      0.66923571	      0.01168037	      9.38259926	     -7.59524638	     -7.49999987	     -0.45364097	     -3.63410269	     -3.44765923	      0.30182765	      0.00526789	     11.84880127	      5.12860629	     -7.49999987	     -1.33342695	      4.27081297	      2.78571532	     -6.22857376	    -10.18887024	      0.91962837	    110.79943633	     79.69714163	     -8.40033729	    -16.45994518	     12.29562187	     99.68832597	     76.11185818
      1.75000000	     -5.33884187	     -2.29035494	     -4.87763031	     -0.28908611	      1.23017996	     -0.10945807	      1.82257976	      1.63082068	      6.40369556	      0.64556742	      0.01126728	      9.26408447	     -7.37206771	     -7.49999987	     -0.28308406	     -3.63707198	     -3.54885772	      0.29465541	      0.00514271	     11.64141688	      5.05124137	     -7.49999987	     -1.27467980	      4.39487790	      2.88748441	     -2.23439713	    -10.45572970	      3.02961995	    118.13865854	     79.27046148	     -6.36364175	    -16.30530998	     10.48762701	    110.76458715	     77.08575114
      1.76666670	     -5.70594657	     -2.26483651	     -4.95734833	     -0.28875219	      1.23227357	     -0.10957576	      2.24575953	      1.66738845	      6.10872772	      0.65214729	      0.01138212	      9.18885138	     -6.98035283	     -7.49999987	      0.12335476	     -3.63997733	     -3.84770335	      0.29472890	      0.00514399	     11.58408721	      5.35250820	     -7.49999987	     -1.00290076	      4.56837196	      3.12721689	      2.71024536	    -11.04905209	      5.37632858	    123.50848725	     79.27326447	     -2.16853058	    -15.40046979	      9.81366037	    117.59899695	     77.70846426
      1.78333330	     -5.97058552	     -2.21087674	     -4.95409206	     -0.28900257	      1.23171522	     -0.10926208	      2.55051678	      1.63728705	      6.13173062	      0.62823782	      0.01096482	      9.04033523	     -7.03142800	     -7.49999987	      0.42297745	     -3.58959034	     -3.85828815	      0.29488258	      0.00514667	     11.40322188	      5.28933713	     -7.49999987	     -0.67310850	      4.73428193	      0.98066313	     10.45966909	    -10.65559567	     10.75141807	    126.17009759	     86.46708419	      0.23586348	    -13.50746745	      5.59566576	    124.05823305	     87.48275094
